<svg id="Layer_1" data-name="Layer 1" xmlns="http://www.w3.org/2000/svg" viewBox="0 0 2000 2000"><path d="M489.4,863.6a10.5,10.5,0,0,1,4.9,9c0,6.6-3.8,13-11.5,19.3s-17.5,10.3-29.5,11.9v123.1c0,3.2.5,5.7,1.6,7.3a25.6,25.6,0,0,0,3.3,4.2,24.5,24.5,0,0,1,3.3,4.1,11.4,11.4,0,0,1,1.6,6.5v4.1q-3.3,6.6-12.3,9a65.7,65.7,0,0,1-18,2.5c-12.1,0-21.5-3.7-28.3-11.1s-12.2-16.5-16-27.5a167.1,167.1,0,0,1-8.2-35.6q-2.6-19.4-4.5-35.7a227.5,227.5,0,0,0-5-27.5q-2.9-11.1-10.2-11.1H247.4c-9.9,0-21.9-.2-36.1-.8s-27.1-1.4-38.6-2.5v120.6c0,7.7,1.7,13.3,4.9,16.8a19.3,19.3,0,0,1,5,13.6c0,2.7-3,4.6-9.1,5.7a83.8,83.8,0,0,1-13.9,1.7c-14.8,0-29.5-4.1-44.3-12.3s-23.8-19.4-27.1-33.7c0-9.3,1.1-21.3,3.3-36.1a299.2,299.2,0,0,0,3.3-44.3V898.9a140.8,140.8,0,0,1-26.7-7.8A115.3,115.3,0,0,1,43.5,878a68.8,68.8,0,0,1-18-18.1,40,40,0,0,1-7-23.3c0-7.7,2.9-14.5,8.6-20.6a110.1,110.1,0,0,1,20.5-16.4,145,145,0,0,1,25-12.3c8.8-3.2,16.2-5.7,22.2-7.4V658.1c0-14.5.3-27.3.8-38.5s1.1-21.5,1.7-30.8,1.3-18.6,2.4-27.9l-3.3-24.6c0-6,2.5-9.3,7.4-9.8a115.8,115.8,0,0,1,14-.9,101.7,101.7,0,0,1,24.2,3.3,82,82,0,0,1,23.7,10.3,70.6,70.6,0,0,1,18.9,17.2,43,43,0,0,1,8.6,24.2c-9.3,0-15,3.7-17.2,11.1a81.7,81.7,0,0,0-3.3,23.4V769.3a6.7,6.7,0,0,1,.8,3.3c0,1.1.6,1.6,1.7,1.6q42.6,1.6,92.3,16.4t107,55.8V565.8a78.8,78.8,0,0,0-2.4-18.8,20.2,20.2,0,0,0-11.5-14q0-11.4,7.8-13.5a75,75,0,0,1,19.2-2.1,232.6,232.6,0,0,1,23.4,1.3,78.2,78.2,0,0,1,22.6,5.7,47.6,47.6,0,0,1,17.2,11.9c4.4,4.9,6.6,11.5,6.6,19.7,0,4.4-1.4,10.1-4.1,17.2V864.4c4.3,3.3,10.1,5,17.2,5a17.2,17.2,0,0,0,9.8-3.3c3.3-2.2,5.8-3.3,7.4-3.3S489.4,863.1,489.4,863.6Zm-394.6-41c-2.2,0-5.8.8-10.7,2.5a82.5,82.5,0,0,0-13.9,6.1,75.6,75.6,0,0,0-11.9,8.2c-3.6,3-5.3,6.2-5.3,9.5s1.5,6.2,4.5,9a40.9,40.9,0,0,0,11.5,7,71.1,71.1,0,0,0,25.8,5.3Zm247.7,58.2A156.1,156.1,0,0,0,304,851.3a243.8,243.8,0,0,0-44.3-18.4,310,310,0,0,0-45.1-10.3c-14.8-2.2-28.5-3.8-41.1-4.9-.5,14.8-.8,26.5-.8,35.3v30.3a445.2,445.2,0,0,0,68.1,4.9c15.9,0,33.2-.5,52.1-1.6A370.8,370.8,0,0,0,342.5,880.8Z"/><path d="M795.3,806.8c2.2-3.9,6.1-5.8,11.5-5.8,2.8,0,4.7,1.7,5.8,4.9a27.1,27.1,0,0,1,1.6,8.2c-.5,17-4.2,32.1-11.1,45.5a220.3,220.3,0,0,1-21.7,34.7A119.9,119.9,0,0,1,767,910.7c-5.2,4.9-10.5,9.6-16,13.9-.5,9.3-.9,15.7-1.2,19.3a65.8,65.8,0,0,1-1.2,8.6c-1.1,8.2-3.9,18.5-8.2,31.1a169.3,169.3,0,0,1-18.5,36.8,123.5,123.5,0,0,1-28.7,30.7c-11.2,8.5-24.2,12.7-39,12.7a109.7,109.7,0,0,1-16.8-1.6,184.2,184.2,0,0,1-19.3-4.5c-6.5-2-12.8-4.1-18.8-6.6a113.2,113.2,0,0,1-15.6-7.8q-20.6-11.4-33.6-27A118,118,0,0,1,530,983.2a153.9,153.9,0,0,1-9.5-36.1,274.1,274.1,0,0,1-2.4-35.6,299.5,299.5,0,0,1,6.1-59.7,530.3,530.3,0,0,1,15.2-58.1,323,323,0,0,1,20.5-50c7.7-14.7,15-26.2,22.2-34.3a57.7,57.7,0,0,1,23.7-16c8.8-3,16.7-4.5,23.8-4.5a59.3,59.3,0,0,1,26.3,6.5,150,150,0,0,1,25.4,16.4,239.2,239.2,0,0,1,24.2,22.5c7.9,8.5,15.5,16.8,22.6,25,5.4,6,9.5,15.7,12.3,29s4.9,26.9,6.5,40.6c1.1,7.6,1.9,15.8,2.5,24.5s.8,17.8.8,27a93.2,93.2,0,0,0,19.7-20.8,159.7,159.7,0,0,0,11.9-20.9,191.2,191.2,0,0,0,7.4-18.4C791.1,814.5,793.1,810,795.3,806.8ZM698.5,944q-9.7,6.6-27,9.9c-11.5,2.1-21.1,3.2-28.7,3.2-14.8,0-26.2-1.1-34.1-3.2s-16.5-6.6-25.8-13.2l-.8,17.3a78.8,78.8,0,0,0,2.4,18.8,59.8,59.8,0,0,0,7.8,18.1,41,41,0,0,0,15.2,13.5c6.5,3.6,14.8,5.3,24.6,5.3,12,0,22.3-2.3,30.8-6.9a63.3,63.3,0,0,0,20.5-17.7,73.3,73.3,0,0,0,11.4-22.9A76.7,76.7,0,0,0,698.5,944Zm3.7-82c-.2-7.7-.8-16.7-1.6-27.1s-2.2-21.2-4.1-32.4a168.7,168.7,0,0,0-8.2-30.8,80.7,80.7,0,0,0-13.5-23.3,26.3,26.3,0,0,0-20.6-9.5q-12.3,0-23.7,9.9c-7.7,6.5-14.5,15-20.6,25.4A155.5,155.5,0,0,0,590.3,848c0,21.9,4.3,37.9,13.1,48s23.8,15.2,45.1,15.2c15.9,0,28.8-2.5,39-7.4s15.1-8.7,15.1-11.5V876.7C702.6,874.6,702.5,869.6,702.2,862Z"/><path d="M956.9,1017a24.3,24.3,0,0,1-6.9,17.2,71.8,71.8,0,0,1-17.3,13.2,88.9,88.9,0,0,1-21.3,8.6c-7.4,1.9-13.5,2.9-18.4,2.9a185.1,185.1,0,0,1-30.8-2.9c-11.2-1.9-20.7-5.9-28.3-11.9s-16-18.5-21.7-34.1S802,975.9,799,954.3s-5-45.7-6.1-72.2-1.7-54.3-1.7-83.3c0-12,.4-25.4,1.3-40.2s1.7-30.2,2.8-46.3,2.5-32.3,4.1-48.4,3.3-31.6,5-46.4q2.4-15.6,5.7-33.6c2.2-12,4.5-23.5,7-34.5a216.7,216.7,0,0,1,8.6-29.5c3.3-8.7,6.8-15,10.7-18.9s10.2-7.2,17.6-8.6a117.6,117.6,0,0,1,20.1-2c12.6,0,22.7,3.3,30.3,9.8s13.6,15.5,17.7,26.7,6.8,24.1,8.2,38.5,2,30,2,46.4c0,25.1-.8,52.4-2.4,81.6a761.8,761.8,0,0,1-10.3,88.2,578.1,578.1,0,0,1-22.1,86.1A311.5,311.5,0,0,1,859.3,944c.6,7.7,1.5,16.6,2.9,26.7a181,181,0,0,0,6.1,28.3c2.8,8.7,6.3,16.1,10.7,22.1s10.1,9,17.2,9,11.8-1.5,15.6-4.5a62.1,62.1,0,0,0,10.3-10.2,118.4,118.4,0,0,1,9-10.3c3-3,7-4.5,11.9-4.5s9.1,1.7,11.1,4.9A22.8,22.8,0,0,1,956.9,1017ZM895.4,631.5c0-5.5-.1-12.1-.4-19.7a153.2,153.2,0,0,0-2.5-22.6,86.7,86.7,0,0,0-5.3-18.8q-3.3-7.8-9-7.8c-5.5,0-9.9,7.6-13.1,22.9s-5.9,35.4-7.8,60.3-3.3,53.1-4.1,84.5-1.3,63.3-1.3,95.6V855a190.3,190.3,0,0,0,1.7,26.7q27-64.8,34.4-125.5A1017.7,1017.7,0,0,0,895.4,631.5Z"/><path d="M1063.6,661c0,3.8-1.9,7-5.8,9.4a39,39,0,0,1-12.7,5.4,112.8,112.8,0,0,1-13.5,2.4,74.3,74.3,0,0,1-8.2.8c-11.5,0-22.9-3.2-34.1-9.8s-21.4-16.9-30.7-31.2c-1.1-1.6-2.8-3.8-4.9-6.5s-3.3-4.7-3.3-5.8c0-2.7,2-5.2,6.1-7.4s8.8-4.3,14-6.5a93.7,93.7,0,0,1,14.7-4.9c4.7-1.1,7.8-1.7,9.5-1.7,10.9,0,21.7,2.8,32.4,8.2s19.3,15.6,25.8,30.4l6.2,8.6C1062.1,656.5,1063.6,659.4,1063.6,661Zm83.7,248.6a245.5,245.5,0,0,1-9.1,41,162,162,0,0,1-18.4,39.8,102,102,0,0,1-30,30.3c-12,7.9-26.8,11.9-44.3,11.9-13.6,0-27.6-4.6-41.8-13.9s-23.9-22.7-29.1-38.6a147,147,0,0,1-7.8-45.9c0-4.4.2-11,.8-19.7s.8-19.4.8-32V792.3c0-4.4-.1-9.1-.4-14a84.5,84.5,0,0,0-2-13.9,44.7,44.7,0,0,0-2.9-7.4c-1.4-2.8-2.1-4.7-2.1-5.8s1.4-3.9,4.1-5.3a33.4,33.4,0,0,1,9.1-2.9,95.9,95.9,0,0,1,13.9-.8l11.5.4a102.2,102.2,0,0,1,18.9,2.9,52.9,52.9,0,0,1,17.6,7.8c5.2,3.6,7.8,8.6,7.8,15.2.5,1.6-.4,4.6-2.9,9s-4.8,12-7,23c-.5,4.3-1.1,8.3-1.6,11.9s-1.1,7.5-1.6,11.8-1.1,9.8-1.7,16-1.1,14.4-1.6,24.2v49.3c0,8.7.3,17.6.8,26.6a127.2,127.2,0,0,0,3.7,24.6c1.9,7.4,5,13.4,9.4,18.1s10.1,7,17.3,7c10.3,0,18.5-3,24.6-9.1a151.4,151.4,0,0,0,13.9-15.6c6-8.2,10.7-18.4,14-30.7s6.2-25,9-38.2l1.6-8.2c1.7-8.2,6.6-12.3,14.8-12.3s12.3,5.8,12.3,17.3v4.1Z"/><path d="M1458.1,900.5a317,317,0,0,1-6.9,41.1,198.3,198.3,0,0,1-15.6,43.4,106.3,106.3,0,0,1-27.1,34.5c-11.2,9.3-24.7,13.9-40.6,13.9-23.5,0-40.6-5.4-51.3-16.4s-19.5-27.9-26.6-50.8l-.8,4.1c-2.2,8.7-4.8,18.3-7.8,28.7a114.8,114.8,0,0,1-12.3,28.3,75.9,75.9,0,0,1-19.3,21.3c-7.7,5.7-17.5,8.6-29.5,8.6a67.8,67.8,0,0,1-24.2-4.5,262.3,262.3,0,0,1-25.1-11.1,76,76,0,0,1-29.5-26.2,126.3,126.3,0,0,1-15.6-33.7,143.6,143.6,0,0,1-5.7-33.2c-.6-10.6-.8-19-.8-25V909.6c0-3.3.8-10.4,2.4-21.4s4.2-23.6,7.8-38.1,7.9-29.7,13.1-45.5a239.7,239.7,0,0,1,18.9-43.5c7.4-13.1,15.9-24.1,25.4-32.8s20.4-13.2,32.4-13.2a112.4,112.4,0,0,1,38.2,6.6c12.3,4.4,21.2,7.7,26.6,9.9.6-9.9,1-21.9,1.3-36.1s.5-28.3.8-42.3.4-26.9.4-39v-27c0-14.2-.3-26.4-.8-36.5a199.4,199.4,0,0,0-2.9-25.9,118.9,118.9,0,0,0-4.5-17.2,58.7,58.7,0,0,0-5.7-11.5,171.4,171.4,0,0,1,27.4-5.7,210.1,210.1,0,0,1,25.1-1.7c12.5,0,22.2,1,29.1,2.9s10.2,6.7,10.2,14.4c0,3.2-.8,12.8-2.4,28.7s-3.3,36.5-5,61.9-3.2,54.8-4.9,88.2-2.4,68.9-2.4,106.6v82.9c0,15.3.2,29.9.8,43.9a267,267,0,0,0,3.7,36.9c1.9,10.7,4.8,19.1,8.6,25.4s9.3,9.5,16.4,9.5c15.9,0,27.7-9.2,35.7-27.5s14.3-47.2,19.3-86.6a36,36,0,0,1,3.2-11.5c1.7-3.2,5.2-4.9,10.7-4.9s8.1,3.2,9.4,9.5a60.6,60.6,0,0,1,1.3,18.4Zm-173-118.9c0-1.7-1.3-3.6-3.7-5.8a65.9,65.9,0,0,0-9-6.5,87.4,87.4,0,0,0-10.9-5.8,26.2,26.2,0,0,0-9.8-2.4c-10.8,0-20.5,6.7-28.9,20.1s-15.5,29.9-21.1,49.6A410.8,410.8,0,0,0,1189,894a505.8,505.8,0,0,0-4,59.9c0,6.5.3,14.2.8,22.9a110.9,110.9,0,0,0,4.1,24.6,62.7,62.7,0,0,0,8.9,19.7,17.9,17.9,0,0,0,15.5,8.2q10.5,0,19.5-12.3c6-8.2,11.4-18.8,16.3-32a414.2,414.2,0,0,0,13.4-44.3c4.1-16.4,7.6-32.6,10.6-48.8s5.3-31.4,6.9-45.9,2.7-26.1,3.3-34.9Z"/><path d="M1753.5,951.4c-1.1,7.7-3.9,16.7-8.2,27.1a153.5,153.5,0,0,1-16.9,29.9,104.9,104.9,0,0,1-23.7,24.2,50,50,0,0,1-30,9.9c-16.4,0-30.7-6.3-43.1-18.9s-19.8-30.4-22.5-53.3l-11.5,30.3a158.2,158.2,0,0,1-16.4,32,109.1,109.1,0,0,1-22.6,25c-8.4,6.9-18.4,10.3-29.9,10.3a27.1,27.1,0,0,1-7.4-.8l-5.3-2.1a34.4,34.4,0,0,0-6.6-2,45,45,0,0,0-10.2-.9c-13.2,0-24.2-4.2-33.3-12.7s-16.2-19.3-21.7-32.4a188.4,188.4,0,0,1-11.9-43,278.5,278.5,0,0,1-3.7-43.9,794.4,794.4,0,0,1,5.3-93.5q5.4-44.4,17.7-78.4t32-54.1q19.7-20.1,47.6-20.1c10.9,0,19.2.9,25,2.8a130.2,130.2,0,0,1,16,6.6c4.9,2.5,10.2,5.1,16,7.8s13.8,4.9,24.2,6.6c11.5,6.5,19.5,14.3,24.2,23.3a91.1,91.1,0,0,1,9,29.2,173.1,173.1,0,0,1,1.2,32.4,166.9,166.9,0,0,0,1.7,33.2c0,.5,1.2,1.4,3.7,2.4s5.3,2.4,8.6,3.7a27.8,27.8,0,0,1,8.6,5.8,12.9,12.9,0,0,1,3.7,9.4v3.3c-5.5,14.2-8.8,26.8-9.9,37.7s-1.6,24.1-1.6,39.4c0,7.7.4,16,1.2,25a176.5,176.5,0,0,0,4.1,25.5c1.9,7.9,4.8,14.5,8.6,19.6s8.8,7.8,14.8,7.8,12.4-3.2,17.6-9.8a98,98,0,0,0,13.2-22.6,238.8,238.8,0,0,0,9-25.8,165.9,165.9,0,0,0,4.5-19.7c1.1-6.6,3.8-9.8,8.2-9.8q4,0,7.8,4.5c2.5,3,3.7,8.3,3.7,16v6.1A40.5,40.5,0,0,1,1753.5,951.4ZM1601.7,818.5a162.3,162.3,0,0,0-1.6-21.3,98.1,98.1,0,0,0-5.8-23,45.3,45.3,0,0,0-12.3-18c-5.5-5-12.8-7.4-22.1-7.4-15.3,0-27.8,7-37.4,20.9s-17.1,30.3-22.5,49.2a298.3,298.3,0,0,0-10.7,58.3q-2.4,29.8-2.4,47.1c0,8.8.4,19.3,1.2,31.6a265.6,265.6,0,0,0,4.5,34.9c2.2,10.9,5.3,20.2,9.4,27.9s9.5,11.4,16,11.4c15.9,0,28.1-6.1,36.5-18.4s14.9-27.6,19.3-45.9a415.1,415.1,0,0,0,9.4-59.1c2-21.1,3.7-40.3,5.4-57.8,1.1-9.3,3.5-15.2,7.4-17.7s5.7-4.2,5.7-5.3Z"/><path d="M1977.4,1035.9q0,6.6-3.3,9a17.8,17.8,0,0,1-7.4,3.3c-2.7.5-5.6.9-8.6,1.2s-5,1.3-6.1,2.9v130.4c0,10.4-.2,21.8-.4,34.1a235.2,235.2,0,0,1-3.7,36.5,149.4,149.4,0,0,1-10.3,33.6,63.3,63.3,0,0,1-20.2,25.4,45.5,45.5,0,0,1-5.4,3.7l-9.9,6.6c-3.5,2.5-7,4.8-10.3,7s-5.4,3.5-6.6,4.1a66.6,66.6,0,0,0-18.5,17.2c-4.7,6.6-10.6,9.8-17.7,9.8a32.9,32.9,0,0,1-6.2-.4l-4.1-1.2-5.8-2.1c-2.4-.8-5.9-1.7-10.3-2.8-24.7-4.9-41.8-12.2-51.5-21.8s-14.4-25-14.4-46.3,3.3-44.6,9.9-68.1a342.9,342.9,0,0,1,27.1-68.1,334.7,334.7,0,0,1,41-61.1,270.6,270.6,0,0,1,51.7-48v-105c-2.8,10.4-6.1,22.4-9.9,36.1a242,242,0,0,1-14.3,38.6,122.8,122.8,0,0,1-20.1,30.3c-7.7,8.2-16.7,12.3-27.1,12.3s-19.4-3.3-30.4-9.8-20.8-13.2-29.5-19.7c-6.6-5.5-11.8-14.1-15.6-25.9a225.8,225.8,0,0,1-8.6-37.3,372,372,0,0,1-3.7-37.7c-.5-12-.8-20.8-.8-26.3q0-31.9.8-66.8c.6-23.3,2-44.7,4.2-64.4s5.5-36,9.9-48.8,10.3-19.3,17.5-19.3a100.8,100.8,0,0,1,13.3,1.6,126.9,126.9,0,0,1,20.7,5.4,67.7,67.7,0,0,1,18.9,9.8c5.5,4.1,8.2,9.2,8.2,15.2a4.2,4.2,0,0,1-2,3.7,17.6,17.6,0,0,0-3.7,2.9c-3.3,2.1-6.3,6.4-9.1,12.7s-5,15.3-6.9,27-3.5,27.1-4.5,46-1.7,42-1.7,69.3q0,61.5,4.5,87.8c3,17.5,9.2,26.2,18.5,26.2s18.7-7.4,26.6-22.1,15.2-34.2,21.8-58.3,12.6-51.4,18-82,10.4-61.5,14.8-92.7c5.5,0,11.6.3,18.5.8a123.3,123.3,0,0,1,19.6,3.3,62.9,62.9,0,0,1,16,6.2q6.6,3.6,6.6,10.2c0,2.7-1.6,4.7-4.9,5.7v242.9a65.9,65.9,0,0,1,17.2,3.7C1974.7,1024.3,1977.4,1028.8,1977.4,1035.9Zm-91,40.2c-13.2,10.4-24.9,23.8-35.3,40.2a319.6,319.6,0,0,0-26.7,52.1,324,324,0,0,0-16.8,54.5q-5.7,27.1-5.7,46.8c0,2.7.1,7.2.4,13.5a59.1,59.1,0,0,0,3.7,18.5,48.6,48.6,0,0,0,9.4,16c4.1,4.6,10.2,6.9,18.5,6.9,12,0,21.4-6.4,28.3-19.2s12-27.9,15.5-45.2a365.3,365.3,0,0,0,7-51.6c1.1-17.3,1.7-30,1.7-38.2v-94.3Z"/></svg>