<svg id="Layer_1" data-name="Layer 1" xmlns="http://www.w3.org/2000/svg" viewBox="0 0 2000 2000"><defs><style>.cls-1{fill:#fe0000;}.cls-2{fill:#fff;}</style></defs><g id="holiday_logo" data-name="holiday logo"><rect class="cls-1" x="23.5" y="23.5" width="1953" height="1953" rx="420.6"/><path class="cls-2" d="M1644.4,1191.7c9.1,6.1,13.6,14.4,13.6,25q0,27.3-31.7,53.3c-21.2,17.4-48.5,28.4-81.7,32.9v340.4q0,13.7,4.5,20.4a75.7,75.7,0,0,0,9.1,11.4,81.1,81.1,0,0,1,9.1,11.3c3,4.5,4.5,10.6,4.5,18.2v11.3c-6,12.1-17.4,20.4-34,25a191,191,0,0,1-49.9,6.8q-50,0-78.3-30.7t-44.3-76q-15.9-45.3-22.7-98.7c-4.5-35.5-8.7-68.4-12.4-98.7s-8.4-55.6-13.7-76-14.7-30.6-28.3-30.6H975q-40.8,0-99.8-2.3t-106.6-6.8v333.5q0,31.8,13.6,46.6c9,9.8,13.6,22.3,13.6,37.4,0,7.6-8.4,12.8-25,15.9s-29.5,4.5-38.6,4.5q-61.2,0-122.5-34t-74.9-93c0-25.8,3-59,9.1-99.9a841.7,841.7,0,0,0,9.1-122.5V1289.3a405.6,405.6,0,0,1-73.8-21.5,326.6,326.6,0,0,1-68-36.4c-20.5-14.3-37.1-30.9-50-49.9s-19.2-40.4-19.2-64.6q0-31.8,23.8-56.8t56.7-45.4a393.1,393.1,0,0,1,69.2-34Q528,967.1,553,960.3v-337c0-40,.7-75.6,2.3-106.6s3-59.4,4.5-85.1,3.8-51.4,6.8-77.2l-9.1-68c0-16.7,6.8-25.7,20.4-27.3a381.2,381.2,0,0,1,38.6-2.2q31.8,0,67,9a235.9,235.9,0,0,1,65.8,28.4A198.2,198.2,0,0,1,801.5,342c14.3,18.9,22.3,41.2,23.8,66.9-25.8,0-41.6,10.2-47.7,30.6a228.8,228.8,0,0,0-9,64.7V930.8a21.7,21.7,0,0,1,2.2,9.1c0,3,1.5,4.5,4.6,4.5q117.9,4.6,255.2,45.4t296.2,154.3v-776a211.8,211.8,0,0,0-6.9-52.2c-4.5-18.2-15.1-31-31.7-38.6,0-21.2,7.1-33.7,21.5-37.4s32.2-5.7,53.4-5.7a619,619,0,0,1,64.6,3.4,218.6,218.6,0,0,1,62.4,15.9q29.6,12.5,47.7,32.9t18.1,54.4c0,12.2-3.8,28-11.3,47.7V1194q18.2,13.6,47.6,13.6c9.1,0,18.2-3,27.3-9.1s15.9-9,20.4-9S1644.4,1190.3,1644.4,1191.7ZM553,1078.3c-6.1,0-15.9,2.3-29.5,6.8a219.4,219.4,0,0,0-38.6,17,210,210,0,0,0-32.9,22.7q-14.7,12.5-14.7,26.1c0,9.1,4.1,17.4,12.4,25s18.9,14,31.8,19.2a180.4,180.4,0,0,0,38.6,11.4,190,190,0,0,0,32.9,3.4Zm685.3,161.1a427.6,427.6,0,0,0-106.7-81.7,667.8,667.8,0,0,0-122.5-51.1,870.4,870.4,0,0,0-124.8-28.3q-61.3-9-113.5-13.6c-1.5,40.8-2.2,73.4-2.2,97.5v84q88.4,13.6,188.3,13.6,65.7,0,144.1-4.5T1238.3,1239.4Z"/></g></svg>